<svg xmlns="http://www.w3.org/2000/svg" width="80" height="70" viewBox="0 0 80 70"><title>icon_oshinagaki</title><g id="レイヤー_1" data-name="レイヤー 1"><path d="M59.4,58l-1.93.5c-.11,1.34-.29,1.35-1.73,1.47-1.62.14-3.23.2-4.85.21a88.65,88.65,0,0,1-9,1.76q-.91.13-1.83.3h0a155.61,155.61,0,0,0,17.94.36c1.27,0,1.58-.32,1.64-1.59.05-1,.07-2.09.11-3.13Z"/><path d="M60,11.36c-1.31-.06-2.63-.06-3.94-.14L51.84,11l.57,2.71c1.05,0,2.09.08,3.14.09a17.37,17.37,0,0,1,3.22.15c1.21.24,1.39.42,1.23,1.63A20.68,20.68,0,0,1,59.59,18a16.76,16.76,0,0,0-.35,3.74c-.3,7.62-.72,15.24-1,22.87.48,2.22,1,4.43,1.36,6.66.12.62.25,1.24.39,1.85.24-6.29.17-12.6.84-18.89.49-4.58.69-9.19,1-13.78h-.11c.08-2.33.16-4.67.23-7C62,12,61.55,11.43,60,11.36Z"/><path d="M52.86,16.24c.78,4.54,1.69,9.06,2.31,13.63,1,7.25,2.95,14.3,4.27,21.48.29,1.59.68,3.16,1,4.75.25,1.24,0,1.61-1.21,1.93A155.14,155.14,0,0,1,41.72,62c-3.09.43-6.1,1.2-9.15,1.79-1.75.34-3.44,1-5.17,1.45-1.52.4-1.56.36-1.81-1.18-.49-3-1.41-5.94-2.11-8.91a87.15,87.15,0,0,1-1.65-8.64c-.29-2.18-1.08-4.29-1.54-6.45-1.24-5.73-2.42-11.48-3.62-17.22-.3-1.41-.63-2.81-.92-4.21-.51-2.41.32-3.75,2.66-4.15C23,13.64,27.41,12,32,11.06c4.34-.87,8.7-1.61,13.05-2.43,1.29-.24,2.57-.56,3.87-.81,1.48-.29,2.09.11,2.4,1.58.49,2.29,1,4.57,1.45,6.86Zm-30.56,23a74.32,74.32,0,0,1,2,9.25c.74,4.19,1.51,8.37,2.63,12.48.42,1.54.71,1.78,2.12,1.34,3.27-1,6.65-1.49,10-2.2,5.79-1.24,11.67-2.11,17.31-4,1.41-.48,1.55-.5,1.32-2-.47-2.89-.86-5.81-1.5-8.67-2-9.06-3.69-18.2-5.54-27.29a16.64,16.64,0,0,1-.56-3.72,21.05,21.05,0,0,0-.2-2.5c-.13-1.22-.35-1.34-1.58-1.29a16.85,16.85,0,0,0-3.16.63C37.89,12.9,30.5,13.81,23.3,15.65a14.68,14.68,0,0,1-3.36.57c-2.59.05-2.1.35-1.76,2.3C19.4,25.49,20.82,32.41,22.3,39.19Z"/><path d="M36.71,27.27A15.37,15.37,0,0,1,32.1,28c-1.52-.11-2.22-.78-2-2.3a11.83,11.83,0,0,1,3.37-7,3.1,3.1,0,0,1,4.41-.11,14.39,14.39,0,0,1,4,5.48c.42.91.19,1.43-.83,1.83C39.58,26.42,38.13,26.81,36.71,27.27Zm3.62-3.78a9.15,9.15,0,0,0-3.82-4.35,1.88,1.88,0,0,0-2.42.55,12.9,12.9,0,0,0-2.68,5.6c-.24,1.34.06,1.59,1.4,1.51.79-.05,1-.41,1-1.15-.05-.41,0-.83-.05-1.25,0-2.25.09-2.4,2.28-2.66.24,0,.48,0,.71-.06a1.32,1.32,0,0,1,1.61,1.06c.22.69.46,1.36.7,2s.73.46,1.14.2S40.55,24.28,40.33,23.49Z"/><path d="M44.32,52.05a13,13,0,0,0-3.9,1.17,5.91,5.91,0,0,1-1.18.41c-.37.07-.75-.08-.87-.77s.14-.79.43-.88c.68-.22,1.38-.39,2.07-.57a5.79,5.79,0,0,1,2.49-.22C43.66,51.24,44,51.3,44.32,52.05Z"/><path d="M32.29,35.42c-1.47.53-2.94,1.07-4.42,1.58-.3.1-.62-.06-.8-.53-.23-.63,0-1,.35-1.18a8.46,8.46,0,0,1,4.75-.46Z"/><path d="M40.53,33.18a12.91,12.91,0,0,1-4.66,1.9.67.67,0,0,1-.79-.52c0-.15.07-.57.18-.6A12.11,12.11,0,0,1,40.53,33.18Z"/><path d="M51.44,44.45c-1.81.53-3.26,1-4.72,1.37-.27.07-.61.07-.79-.49s0-.89.29-1A5.55,5.55,0,0,1,51.44,44.45Z"/><path d="M43,45.82c-1.57.52-3.12,1-4.69,1.53-.43.13-.9,0-1-.85s.36-.76.7-.79C39.59,45.6,41.12,44.69,43,45.82Z"/><path d="M50.12,37.48c-1.27.53-2.55,1.07-3.83,1.59a1.85,1.85,0,0,1-.7.13c-.36,0-.59-.31-.68-.8s0-.72.28-.79a13.32,13.32,0,0,1,4.8-.78Z"/><path d="M41.6,39.69c-1.61.43-3.22.88-4.84,1.28-.28.07-.64-.09-.71-.66,0-.19.11-.53.23-.56a19,19,0,0,1,5.18-.8Z"/><path d="M49.31,32.18c-1.4.44-2.8.9-4.21,1.31-.34.1-.75.1-.91-.62-.12-.56.15-.82.44-.88C46.12,31.64,47.61,31.23,49.31,32.18Z"/><path d="M35.25,47.27a27.06,27.06,0,0,1-5.61,1.28C30.43,46.88,33.74,46.29,35.25,47.27Z"/><path d="M32.8,41.24a10.24,10.24,0,0,1-3.92,1.29c-.23,0-.49-.07-.55-.54,0-.3.11-.48.27-.51C30,41.22,31.28,40.6,32.8,41.24Z"/><path d="M35.4,52.53a11.65,11.65,0,0,1-4.62,1.8c-.23,0-.49-.06-.55-.53,0-.31.11-.48.27-.51C32,53.06,33.37,52.21,35.4,52.53Z"/></g></svg>