<svg xmlns="http://www.w3.org/2000/svg" width="13.61" height="13.27" viewBox="0 0 13.61 13.27"><defs><style>.cls-1{fill:#fff;}</style></defs><title>icon_batsu</title><g id="レイヤー_2" data-name="レイヤー 2"><g id="レイヤー_1-2" data-name="レイヤー 1"><path class="cls-1" d="M4.29,6.56C3.11,5.38,1.9,4.23.76,3c-1-1-1-1.87-.17-2.58S2.27.05,3,.77l10,9.87c.58.58,1,1.24.34,2a1.31,1.31,0,0,1-2,0c-1.63-1.42-3.53-2.54-4.95-4.21-.59-.7-1.29-1.31-1.94-2Z"/><path class="cls-1" d="M5.53,5.92C6.83,4.62,8.11,3.3,9.44,2A16,16,0,0,1,11.22.64c.47-.34,1-.74,1.57-.23S13,1.48,12.58,2c-.15.2-.31.39-.48.58L3.57,12.06a6.63,6.63,0,0,1-.53.53c-.93.8-1.91.92-2.41.23A1.59,1.59,0,0,1,1,10.58L5.57,6Z"/></g></g></svg>