<svg xmlns="http://www.w3.org/2000/svg" width="80" height="70" viewBox="0 0 80 70"><title>icon_omoi</title><g id="レイヤー_1" data-name="レイヤー 1"><path d="M61,30.63c.19.54.41,1,.53,1.5a1.3,1.3,0,1,1-2.45.89,23.06,23.06,0,0,0-1.74-3.16c-1.11-1.57-2.76-1.92-4.52-2-.35,0-.47.35-.72.49-1.4.78-1.66,1.88-1.33,3.42a37.34,37.34,0,0,1,.55,4,10.06,10.06,0,0,1-.55,4.45,2.89,2.89,0,0,1-2.46,2c-.52.07-.72.21-.79.76-.11.85-.29,1.69-.46,2.53a5.41,5.41,0,0,1-2.79,3.67,7,7,0,0,0-3.43,5.6c-.15,1.66.83,3.12,3.39,2.25A8.4,8.4,0,0,0,43,55.38a1.63,1.63,0,0,1-.42-2.29,8.42,8.42,0,0,1,3-2.83,1,1,0,0,1,1.55.33c.25.52,0,1-.57,1.38-.82.49-1.66.93-2.45,1.45s-.85.78-.34,1.64c.32.56.59,1.15.89,1.74a6.82,6.82,0,0,0,2.59-1.41c1.59-1.25,3.17-2.52,4.64-3.91a29,29,0,0,0,3.77-4.91,7.77,7.77,0,0,1,2.59-2.48c.4-.22.92-.66,1.37-.08.31.39.09.88-.59,1.36a4.39,4.39,0,0,0-1.26,1.28c-.83,1.3-1.93,2.42-2.43,3.94a5,5,0,0,1-1,1.36c-.53.68-1.08,1.34-1.63,2A7.3,7.3,0,0,1,50,56.3a1.8,1.8,0,0,0-1,.79A1.87,1.87,0,0,0,51.13,57a13.71,13.71,0,0,0,4.68-4.34,15.81,15.81,0,0,1,1.93-2.41A11,11,0,0,0,59.67,47c.36-.73.72-1.47,1.14-2.16.3-.48.56-.43.8.09a5.15,5.15,0,0,1,.47,1.62c.63-.16,1.16-.33,1.7-.42a2.82,2.82,0,0,1,2.57.77,5.38,5.38,0,0,0,3.12,1.32c1,.09,1.41.4,1.45,1.1s-.41,1.18-1.3,1.35a2.81,2.81,0,0,1-2-.41,8.64,8.64,0,0,0-1.34-.78c-.85-.29-1.71-.83-2.64-.14-.26.2-.55,0-.84-.11a1.36,1.36,0,0,0-1.78.57c-.39.56-.71,1.18-1.08,1.76a4.86,4.86,0,0,1-1.52,1.73,1,1,0,0,0-.38.34c-1.38,2.44-4,3.49-6,5.28a1.63,1.63,0,0,1-1.45.4,4.92,4.92,0,0,0-4,1.07,20.66,20.66,0,0,1-4.81,2.18,3.79,3.79,0,0,1-2.77-.13,25.7,25.7,0,0,1-4.83-2.7,30,30,0,0,0-4.6-2.59c-3.13-1.33-5.45-3.72-7.57-6.31A37.75,37.75,0,0,1,17,42l-.2-.48c-.77-1.82-.87-1.88-2.76-1.36a16.34,16.34,0,0,0-3.34,1.35c-.52.28-1.09.65-1.66.15-.39-.34-.24-.94.49-1.68A8.06,8.06,0,0,1,13,38.07a10.66,10.66,0,0,1,1.77-.35c.53-.08.74-.32.66-.88a13.7,13.7,0,0,1-.12-1.93,3,3,0,0,1,3.39-3.12,2.32,2.32,0,0,1,1.69.83c.38.47.74,1,1.09,1.45a1.37,1.37,0,0,0,1,.65A7.66,7.66,0,0,1,25.28,36a3.12,3.12,0,0,1,1.25,2.19,3.14,3.14,0,0,0,1.57,2.21,2.7,2.7,0,0,1,1.06,1.11,17.83,17.83,0,0,0,2.24,2.66,1.72,1.72,0,0,0,.27.27,1,1,0,0,0,1.2.16.86.86,0,0,0,.43-1,11.44,11.44,0,0,0-1-3.72,26.32,26.32,0,0,0-3.18-5.45c-.69-.84-.88-2-1.58-2.8-1-1.22-2-2.47-3-3.71-.17-.2-.34-.4-.49-.61a.52.52,0,0,1,0-.71.51.51,0,0,1,.8,0,12.61,12.61,0,0,1,1.07,1.12c1.39,1.7,3.09,3.13,4.28,5a5.47,5.47,0,0,1,.49.76,44.7,44.7,0,0,0,3.71,6.34,8.77,8.77,0,0,1,1,2.49,14.36,14.36,0,0,0,2.46,4.93,3.72,3.72,0,0,0,1.9,1.05c.56.18.89-.23,1.07-.7a2.72,2.72,0,0,0-.32-2.69A21.42,21.42,0,0,1,38.2,40c-.1-.23-.28-.54-.2-.72.58-1.34-.18-2.46-.64-3.56a67.48,67.48,0,0,0-3.78-7.62c-.66-1.15-1.43-2.25-2.17-3.35a14.35,14.35,0,0,1-1.27-2.54.41.41,0,0,1,.1-.34.22.22,0,0,1,.33,0c.47.69,1.33,1,1.59,1.93a5.11,5.11,0,0,0,1.21,1.8,42.65,42.65,0,0,1,3.34,5.07,27.81,27.81,0,0,1,2,4.89c1,2.55,1.89,5.16,2.8,7.75a9.44,9.44,0,0,0,1.39,2.17,1,1,0,0,0,1.68.07,2.45,2.45,0,0,0,.73-1.21,6.86,6.86,0,0,0,0-3.81c-.43-1.36-.88-2.71-1.43-4-.27-.62,0-1.19-.08-1.77a17,17,0,0,0-1.22-4.47A16.55,16.55,0,0,0,39.07,24c-.57-.57-1.33-1-1.71-1.73a1.08,1.08,0,0,1-.13-1.08c.38-.8.74-.9,1.32-.23,2.43,2.82,4.58,5.82,5.52,9.51a24,24,0,0,0,1.73,4.31,4.7,4.7,0,0,1,.57,2.43,5.23,5.23,0,0,0,.89,2.49c.29.54,1.48.41,1.77-.17a3.6,3.6,0,0,0,.55-1.71,23,23,0,0,0-.23-4,51.74,51.74,0,0,0-1.59-6.11,24.54,24.54,0,0,0-3.12-6.48,12,12,0,0,1-1.06-1.92A16,16,0,0,0,41,15.51,2.15,2.15,0,0,0,38,15a4.22,4.22,0,0,1-3.94.39c-.19-.08-.44-.05-.62-.14a1.8,1.8,0,0,0-2.19.59c-1,.92-1.94,1.84-2.82,2.83a2.54,2.54,0,0,1-2.38.95c-2.43-.25-3.85.57-4.76,2.82-.47,1.15-1.06,1.94-2.4,2a1.29,1.29,0,0,0-1.2,1c-.3.81-.62,1.61-.94,2.41s-.72,1-1.25.86-.8-.57-.78-1.3a6.34,6.34,0,0,1,.47-1.87,5.16,5.16,0,0,0,.43-1.64,54.88,54.88,0,0,0-9.39.47,4.21,4.21,0,0,1,1.52-2.25.92.92,0,0,1,.72-.2,20.29,20.29,0,0,1,6.47,1c.64.25,1.2.41,1.75-.21a1.89,1.89,0,0,1,1.28-.57A1.86,1.86,0,0,0,19.59,21a5.72,5.72,0,0,1,3.1-2.78,9.29,9.29,0,0,1,3.68-1c.55,0,.83-.3,1.07-.76A11.91,11.91,0,0,1,31,12.73a1.67,1.67,0,0,1,1.47-.3c.68.13,1.38.17,2,.34a6.07,6.07,0,0,0,2.87-.18c1.9-.38,3.84-.4,5.28,1.41a49.6,49.6,0,0,1,4.18,6.21c.39.66.73,1,1.58.89a4.46,4.46,0,0,1,3.52.87,3.76,3.76,0,0,1,1.71,3.27c0,.57.16.75.69.8A7.1,7.1,0,0,1,59,28.09c.12.13.32.33.4.29,1.09-.45,2.27.34,3.39-.33a3.72,3.72,0,0,1,3.47-.19,15.8,15.8,0,0,0,6.22,1,13.55,13.55,0,0,1,2.7.14c.77.13,1.14.51,1.16,1.15s-.36,1.14-1.18,1.24a15.88,15.88,0,0,1-9.65-1.65c-.77-.42-1.36-.58-2.07.08S61.79,30.24,61,30.63ZM38.5,55.92a31.11,31.11,0,0,1-.07-4.4.6.6,0,0,0-.45-.69,5.3,5.3,0,0,1-2.35-1.94,2.15,2.15,0,0,0-1.56-.76,7.12,7.12,0,0,1-3.85-1.23,8.79,8.79,0,0,1-1.78-2l-.9-1.42a1.84,1.84,0,0,0-1.79-.81c-.58.08-.43.91-.46,1.45a2.18,2.18,0,0,0,.22,1.25,21,21,0,0,0,4.38,5.85c1.06.89,2,1.92,3.07,2.75C34.57,55.17,36.49,55.43,38.5,55.92Zm-15-10.1a10.82,10.82,0,0,1,1-4.45.9.9,0,0,0,.1-.62,21.37,21.37,0,0,0-1-2.79c-.18-.37-.41-.52-.82-.32s-.64.23-1,.35a1,1,0,0,0-.66,1A8.69,8.69,0,0,0,23.52,45.82Zm-1.86.52c-.44-.77-.89-1.54-1.34-2.3a7,7,0,0,1-.47-6.54,2,2,0,0,0-.06-2.09c-.32-.55-.54-1.18-1.23-1.42-.49-.17-.83-.08-1,.45a4,4,0,0,0-.06,1.9,22.84,22.84,0,0,0,2.65,8.28C20.52,45.29,20.77,46,21.66,46.34ZM50,27.46a2.59,2.59,0,0,0,1-3.26,2.69,2.69,0,0,0-2.66-1.83c-.51,0-.43.39-.29.64A27.86,27.86,0,0,1,50,27.46Zm-8,32a28.36,28.36,0,0,0-5.68-1.53,20.47,20.47,0,0,0,2.65,2c.3.15.58.4.94.15A6.71,6.71,0,0,1,42,59.43ZM28.49,53a6.84,6.84,0,0,0-1.85-1.55C27.46,52.72,27.46,52.72,28.49,53Zm17.08,6c.1,0,.25,0,.21-.18a.52.52,0,0,0-.21,0c-.09,0-.24,0-.22.15Z"/></g></svg>