<svg xmlns="http://www.w3.org/2000/svg" width="80" height="70" viewBox="0 0 80 70"><title>icon_oshirase</title><g id="レイヤー_1" data-name="レイヤー 1"><path d="M61.28,42.9c-5.22.72-10.47,1.27-15.71,1.81-3,.3-5.93.54-8.88.95-2.21.3-4.41.69-6.61,1A3.86,3.86,0,0,0,27,48.73a11.61,11.61,0,0,1-3.31,4.19c-1.09.73-1.7.81-2.67,0A13.29,13.29,0,0,1,16.12,44a6,6,0,0,1,1-3.71,2.7,2.7,0,0,1,2.2-1.19,11.46,11.46,0,0,1,3.87.42,2,2,0,0,0,1.87-.41,44.29,44.29,0,0,1,6.08-4.27,16,16,0,0,0,3.13-2.63A122.29,122.29,0,0,1,49.83,19.49a40.66,40.66,0,0,0,3.27-2.75c.43-.36.89-.68,1.33-1a2.49,2.49,0,0,1,3.38.16,15.56,15.56,0,0,1,4,4.4A46.74,46.74,0,0,1,66,30.57,25.45,25.45,0,0,1,66.79,40c-.13,1.94-.32,2-2.21,2.36Zm-6.56-24c-1.12.3-1.71,1.26-2.56,1.85-6.27,4.35-12.28,9.05-18.23,13.83a53.22,53.22,0,0,0-7.38,6.52,3.21,3.21,0,0,1-3.1,1.16c-1.29-.15-2.59-.27-3.88-.48a.81.81,0,0,0-1.06.71,3.87,3.87,0,0,0-.06,2.21,10.85,10.85,0,0,0,2.3,4.61c.39.4.76.81,1.17,1.18a.51.51,0,0,0,.74-.7c-.23-.29-.47-.58-.69-.88s-.32-.57-.07-.84.56-.16.83,0,.58.81,1.29.55a6.72,6.72,0,0,1-.41-.72c-.17-.36-.73-.69-.32-1.12s.77.06,1.05.34c.63.65.92.17,1.28-.3s.08-.79-.05-1.2c-.25-.86-.73-1.74-.12-2.69.18.12.43.19.46.32.48,1.66,1.64,1.8,3.09,1.5,1.27-.26,2.56-.45,3.85-.64,7.38-1,14.76-2,22.14-3.08a29.41,29.41,0,0,0,6.78-1.39C58.23,33.11,56.49,26,54.72,18.88Zm-25.85,45a14.47,14.47,0,0,1-4.2-.95c-1.28-.6-1.66-1.4-1-2.66a10.91,10.91,0,0,1,5.24-4.91,2.86,2.86,0,0,1,3.84,1.37,13.28,13.28,0,0,1,1.6,6C34.41,63.65,34,64,33,64,31.64,64.05,30.25,63.91,28.87,63.83Zm4.39-2.06a8.47,8.47,0,0,0-1.85-5,1.75,1.75,0,0,0-2.28-.34,12.07,12.07,0,0,0-4.18,4c-.64,1.07-.47,1.39.71,1.77.7.22,1,0,1.22-.67.1-.37.25-.73.38-1.1.71-2,.87-2,2.85-1.54.22,0,.42.14.64.19a1.22,1.22,0,0,1,1,1.45c0,.66-.06,1.33-.07,2s.47.64.92.56S33.19,62.53,33.26,61.77ZM26.91,45c3,2.1,2.1,9.57,4.11,12-.2.45-.83.38-1.3.16-1.37-3.37-.07-7.81-3-10.37Z"/></g></svg>