<svg xmlns="http://www.w3.org/2000/svg" width="80" height="70" viewBox="0 0 80 70"><title>icon_kodawari</title><g id="レイヤー_1" data-name="レイヤー 1"><path d="M45.8,57.48c-6.83.82-13.64,1-20.34-.89-3-.84-5.8-2-7.18-5.17C18,50.69,17.57,50,18,49.2a1.08,1.08,0,0,0,.1-.56c-.19-4,1.46-7.49,3.13-11A66.53,66.53,0,0,1,32,22.17a15.13,15.13,0,0,1,5.79-4.52A13.14,13.14,0,0,1,43,16.88a8,8,0,0,1,5,2.35c5.27,4.61,8.67,10.48,11.66,16.68a39,39,0,0,1,3.45,11.15A5.91,5.91,0,0,1,61,52.8a18.09,18.09,0,0,1-9.57,4C49.57,57.13,47.68,57.28,45.8,57.48Zm-17-3.58c.14-.79.28-1.42.34-2.06.33-3.43.87-6.84,1.4-10.25.46-3,1.69-4.28,4.64-4.62s6-.53,9-.73a20.35,20.35,0,0,1,3.12.07c3.19.26,3.51.56,4.29,3.7.06.25.16.5.21.75.71,3.9,1.86,7.74,1.51,11.77a.88.88,0,0,0,.32.93c1.06-.33,2.17-.67,3.28-1a5,5,0,0,0,3.45-6.11c-.45-1.49-.72-3-1.28-4.5a71.43,71.43,0,0,0-3.8-7.7,47.62,47.62,0,0,0-8.55-12.27C45,20.1,43,19.2,40.55,19.94a10.32,10.32,0,0,0-4.25,2.3A69.83,69.83,0,0,0,24.45,37.42a47.62,47.62,0,0,0-3.37,7c-.7,1.82-1.18,3.9.61,5.6.33.31.55.73.85,1.07C24.22,52.94,26.39,53.59,28.84,53.9Z"/><path d="M34.6,30a2.94,2.94,0,0,0-2.14,2.68c-.13,1-1.22,1.61-1.76,2.49a.69.69,0,0,1-1,0c-.27-.24-.43-.68-.2-.86,1.58-1.23,1.92-3.49,3.74-4.5A1.07,1.07,0,0,1,34.6,30Z"/><path d="M42.8,25.85c1.48-.28,2.54-.29,3.15.93a1.92,1.92,0,0,0,1.12,1A2.63,2.63,0,0,1,48.5,29.3.82.82,0,0,1,48,30.43c-.41.22-1,.08-1-.24-.26-1.29-1.84-1.64-2-3C44.9,26.16,43.77,26.49,42.8,25.85Z"/><path d="M56.73,44.62c1-.06,1.37.38,1.55,1s.19,1-.31,1.16c-.76.18-.52-.49-.51-.88S57,45.12,56.73,44.62Z"/></g></svg>