<svg xmlns="http://www.w3.org/2000/svg" width="80" height="70" viewBox="0 0 80 70"><title>icon_shop</title><g id="レイヤー_1" data-name="レイヤー 1"><path d="M48.29,42.56C43.86,44.28,39.44,44,35,42.65A10,10,0,0,1,29.68,39c-.67-.92-1.25-1.49-2.46-1.08A3.83,3.83,0,0,1,25.6,38a3.2,3.2,0,0,1-2.94-3.36,4.57,4.57,0,0,1,3.77-4.7c.72-.09,1.49-.08,1.71.81S27.75,32,27,32.13A2.23,2.23,0,0,0,24.9,34.3c-.1,1.17.56,1.66,1.73,1.37C28.87,35.1,29,35,30,37c1.47,2.82,4.06,3.87,6.84,4.42A15.07,15.07,0,0,0,47.78,40a8.31,8.31,0,0,0,3.49-3.05,1.73,1.73,0,0,1,2.32-1,2.13,2.13,0,0,0,2.51-1.26c.48-.82.46-1.78-.58-2.17-1.83-.67-2.8-2.16-3.78-3.67a9.24,9.24,0,0,0-4.42-3.72c-5-2-10-2.68-14.92.05a7.91,7.91,0,0,0-2.75,2.14c-.39.53-.78,1-1.52.79s-.63-.86-.69-1.38c-.55-5.38,1-10,5.55-13.11A21.05,21.05,0,0,1,53.5,11.23a9.39,9.39,0,0,1,4.73,4.38,2.34,2.34,0,0,1,.12,2.66c-2,2.71-2.28,5.92-2.74,9.08-.1.62-.16,1.24-.23,1.86a1.09,1.09,0,0,0,.71,1.31c1.93.76,2.86,2.12,2.39,4.23a4.9,4.9,0,0,1-4.26,3.82,2.77,2.77,0,0,0-2.21,1c-1,1.31-2.71,1.83-3.81,3.06Z"/><path d="M40.34,39.26a5.57,5.57,0,0,1-3.58-1.6c-.53-.55-.84-1.19-.2-1.84a1.1,1.1,0,0,1,1.65,0c1.67,1.47,3.32,1.53,5,0a.91.91,0,0,1,1.26-.14,1.07,1.07,0,0,1,.11,1.49C43.54,38.7,41.92,39,40.34,39.26Z"/><path d="M35.48,33.38l-2,2.28c.08-1.24.91-1.86,1.58-2.61Z"/><path d="M34.23,32.69,32,35.43C32.35,33.86,32.35,33.86,34.23,32.69Z"/><path d="M48.5,36.21a4,4,0,0,1,1.77-2.71A6,6,0,0,1,48.5,36.21Z"/><path d="M48.35,33.13a5.17,5.17,0,0,1-1,2.32C47.3,34.37,47.3,34.37,48.35,33.13Z"/><path d="M59,59.36c-.79-.49-.48-1.21-.48-1.89a22.81,22.81,0,0,0-1.71-9.38c-1.58-3.56-5.24-5.86-8.56-5.46,0,1.48-1.07,2.69-1.17,4.16-.07,1.17-.78,1.59-1.85,1.67-2.33.18-4.66.4-7,.57a23,23,0,0,1-2.35,0c-2.25,0-2.55-.28-3-2.4-.22-1-.39-2-.58-3s-.39-1.76-1.37-2a2.78,2.78,0,0,0-2.79.81,13.13,13.13,0,0,1-.92,1c-4,3.24-5.69,7.68-6.64,12.54-.36,1.83-.17,3.74-.83,5.52-.19.5-.63,1-.16,1.5a1.52,1.52,0,0,0,1.75.23c1-.33,1.92-.63,2.89-.93a19.13,19.13,0,0,1,3.85-1c8.58-.83,17.14-1.2,25.69.37,1.23.22,2.47.37,3.7.54a2,2,0,0,0,2.12-1.15A1.28,1.28,0,0,0,59,59.36ZM27.86,49.5a60,60,0,0,0-2.17,8.86c-.22,1.63-1.79.77-2.64,1.45.39-5,1.22-9.66,4.61-13.92A5.39,5.39,0,0,1,27.86,49.5Zm20.89,7c-.34.14-.72.25-.81-.3s-.18-1.07-.25-1.61a1,1,0,0,0-1-1c-.18,0-.36-.05-.54-.06-1.66-.1-1.78,0-2,1.67-.05.31-.12.62-.14.93,0,.56-.28.79-.87.72-1-.12-1.19-.35-.84-1.31A10,10,0,0,1,45,51.79a1.42,1.42,0,0,1,1.87-.07,6.88,6.88,0,0,1,2.24,3.74C49.13,56.08,49.11,56.4,48.75,56.54Zm5.9,1.65c-.54,0-1.1-.07-1.2-.81-.5-3.45-2.07-6.7-1.91-10.27,0-.74.14-1.48.25-2.52a5.6,5.6,0,0,1,2.54,3.46,29.08,29.08,0,0,1,1.08,9C55.4,57.54,55.52,58.24,54.65,58.19Z"/><path d="M48.2,42.63h.08s0-.05,0-.07Z"/></g></svg>