<svg xmlns="http://www.w3.org/2000/svg" width="17.86" height="17.31" viewBox="0 0 17.86 17.31"><defs><style>.cls-1{fill:#fff;}</style></defs><title>icon_menu_1</title><g id="レイヤー_2" data-name="レイヤー 2"><g id="レイヤー_1-2" data-name="レイヤー 1"><path class="cls-1" d="M7.21,3.24c-1.66,0-3.33,0-5,0C.79,3.18.19,2.6.27,1.51S1.18.06,2.2.06l14-.06c.82,0,1.56.2,1.64,1.15s-.59,1.38-1.41,1.43c-2.16.15-4.29.71-6.48.53-.91-.08-1.84,0-2.76,0Z"/><path class="cls-1" d="M8.92,14.32c2.42,0,4.84.07,7.25,0,.73,0,1.47-.23,1.57.63s-.06,1.7-1.15,1.9a2.73,2.73,0,0,1-.5.05l-14,.45a3.74,3.74,0,0,1-.75,0A1.39,1.39,0,0,1,0,16a1.34,1.34,0,0,1,1.41-1.43c1.5-.08,3-.07,4.51-.09h3Z"/><path class="cls-1" d="M8.8,7.28c1.84,0,3.68,0,5.52,0a16.91,16.91,0,0,1,2.24.27c.58.1,1.25.21,1.28,1s-.65.86-1.24.94l-.75.06-12.77.71a6.26,6.26,0,0,1-.75,0c-1.23-.09-2-.7-1.86-1.54A1.59,1.59,0,0,1,2.28,7.33H8.8Z"/></g></g></svg>