<svg xmlns="http://www.w3.org/2000/svg" width="45.91" height="45.92" viewBox="0 0 45.91 45.92"><defs><style>.cls-1{fill:#182987;}.cls-2{fill:#a40b5e;}.cls-3{fill:#fff;}</style></defs><title>loading_mura</title><g id="レイヤー_2" data-name="レイヤー 2"><g id="レイヤー_1-2" data-name="レイヤー 1"><path class="cls-1" d="M25.15,35.07a10.14,10.14,0,0,1-6.66,1.8c3-5.16.75-7.14.75-7.14a18.42,18.42,0,0,1,1.44-1.61L12.79,16l0,30H32.19Z"/><path class="cls-1" d="M12.78,11.39l9.83,15.16c3.31-2.11,5.53-.68,5.53-.68,2.56,1.79.18,5.5-1.25,7.34l6.27,9.66L33.1,0H12.77Z"/><path class="cls-2" d="M9.87,11.17a1,1,0,0,1,.2-.22V0h-8A2,2,0,0,0,0,2.06V26.4Z"/><path class="cls-2" d="M43.86,0h-8l.06,45.92h8a2.05,2.05,0,0,0,2-2.06V2.06A2.05,2.05,0,0,0,43.86,0Z"/><path class="cls-2" d="M10.08,15.39,0,30.94V43.86a2,2,0,0,0,2.05,2.06h8.07Z"/><path class="cls-3" d="M18.7,35.64a2.91,2.91,0,0,1-.8.59,3,3,0,0,0,.63.84c1.87,1.76,5.69.74,8.52-2.28s3.61-6.89,1.73-8.65-5.69-.74-8.52,2.27a11.56,11.56,0,0,0-1.7,2.32C19.75,32.35,19.86,34.4,18.7,35.64Z"/></g></g></svg>