<svg xmlns="http://www.w3.org/2000/svg" width="360" height="360.37" viewBox="0 0 360 360.37"><defs><style>.cls-1{fill:#182987;}.cls-2{fill:#a40b5e;}.cls-3{fill:#fff;}</style></defs><title>logo</title><g id="レイヤー_2" data-name="レイヤー 2"><g id="レイヤー_1-2" data-name="レイヤー 1"><polygon class="cls-1" points="0 360.37 180 0 360 360.37 0 360.37"/><polygon class="cls-2" points="179.73 0 141.23 77.4 218.78 77.4 179.73 0"/><path class="cls-3" d="M202.53,149.17a4.89,4.89,0,0,0-2.7.32,1.9,1.9,0,0,0-.93,1.38l-2.1,15.84a.29.29,0,0,1-.1.18.6.6,0,0,1,0-.23,1.77,1.77,0,0,1-.69.11q-8.26-.14-13.33-.19l.26-30.51a2.57,2.57,0,0,0-1.27-2.39,5.38,5.38,0,0,0-3-.82,3.9,3.9,0,0,0-2.72.88,3.22,3.22,0,0,0-.95,2.33l.2,30.45q-8,.06-13.33.25c-.48,0-.77-.16-.89-.46l-.37-15c-.16-2.15-1.39-3.23-3.67-3.23a4.24,4.24,0,0,0-2.68.83,3.22,3.22,0,0,0-.93,2.4,48.39,48.39,0,0,0,.37,5.3c.22,2.36.43,5.82.64,10.36l-.06.05v0l.06,0v.09l-.06.06c.07,1.28.13,2.62.18,4.06,0,1.12.68,1.69,2,1.69a24.07,24.07,0,0,0,3.1-.31q3.6-.69,19.84-.69,9.6,0,17.12.5c2.66.16,4.26.25,4.81.25a1.56,1.56,0,0,0,.53-.1l.22.1c.06-.1.13-.22.19-.34a1.75,1.75,0,0,0,.2-.19,1.64,1.64,0,0,1,0-.23c0-.09.07-.17.1-.26q2-13.41,3.1-19.48.23-2.7-3.17-3"/><path class="cls-3" d="M156.19,211.87c-1.38-.18-2.06-.57-2.06-1.16q1.88-7.46,4.05-29.87c0-1.27.53-1.91,1.47-1.91.39,0,1.22.07,2.51.2q5.64.35,17.27.35,11.81,0,18.22-.62a12.46,12.46,0,0,1,2.11-.4c.86,0,1.37.79,1.54,2.38L204.84,210c0,.95-.94,1.57-2.82,1.84q-11.31,1.09-22.86,1.1-16.35,0-23-1m26.7-12.64.06,8.26q6.42-.06,12.06-.47c1.84-.14,2.77-.32,2.77-.55l-1-8.4a84.72,84.72,0,0,1-13.92,1.16m-.13-14.7.06,9.09a92.13,92.13,0,0,0,13.35-1l-.9-7.79c0-.32-.26-.48-.76-.48q-5.91.19-11.75.2m-6,.07H165.17c-.42,0-.66.26-.71.76l-1,7.51q6.87.62,13.16.75Zm-.12,14.63c-4.62-.1-9.25-.37-13.86-.82l-1,8.06c0,.27.52.48,1.54.62q4.19.41,13.23.4Z"/><path class="cls-3" d="M177.72,242.11a.44.44,0,0,0-.16-.06,23,23,0,0,0-5.4-1.73l.09-2.92c.84,0,1.69.08,2.57.15,1.12.1,2.08.17,2.9.23v-3.87c-1.69-.06-3.51-.11-5.47-.15v-.33h.05l0-5.78a17,17,0,0,0-1.58-8.05,3.5,3.5,0,0,0-3-1.65c-1.21,0-2.2.82-3,2.47a19.62,19.62,0,0,0-1.16,7.23v6.11c-2.62,0-4.84.08-6.68.13v0a72.7,72.7,0,0,0-9.78.57c-1.35.42-2,1.11-2,2.06q0,1.72,4.7,1.73c.62,0,1.87-.12,3.76-.34,1.1-.1,2.38-.2,3.83-.28v0c1.71-.13,3.76-.21,6.19-.25v3.15a36.55,36.55,0,0,1-6.39,3.78,15.12,15.12,0,0,1-5.63,1.44c-.67,0-1-.07-1-.19a3.69,3.69,0,0,0-2.24,3.35,1.56,1.56,0,0,0,.58,1.34,4.29,4.29,0,0,0,2,.33,18.49,18.49,0,0,0,6.72-1.39,22.19,22.19,0,0,0,6-3.68v9.18c0,1.73.39,2.76,1.16,3.11a6.68,6.68,0,0,0,3,.63,4.05,4.05,0,0,0,3.07-1.06,3.94,3.94,0,0,0,1.17-3l.15-9.51c2.44.66,4.28,1.12,5.56,1.38Z"/><path class="cls-3" d="M207.41,230c-2.17-.21-4.67-.35-7.49-.45v-2.41q0-2,.3-5.89A7.44,7.44,0,0,0,199,216.7a3.64,3.64,0,0,0-2.48-1.34,3.35,3.35,0,0,0-2.68,1.85,15.56,15.56,0,0,0-.95,6v6.2c-5.46,0-9.58.19-12.37.48v6.62q3.87-1,12.37-1V254.9a3.81,3.81,0,0,1-2,3.3,5.87,5.87,0,0,1-1.42.69V259a151.36,151.36,0,0,1-16.22.88,7,7,0,0,0,3.62,6.07,15.72,15.72,0,0,0,7.23,1.57c2,0,4-.07,6-.19v-.1a14.45,14.45,0,0,0,6.28-2.86q3.63-2.91,3.63-8.83V235.67h.73c2.48.15,4.22.22,5.23.22a2.3,2.3,0,0,0,2.26-1.35,8.48,8.48,0,0,0,.87-3.66c0-.5-.53-.8-1.6-.9"/><path class="cls-3" d="M186.93,246s-1.84-.09-2.44-3.76a6,6,0,0,0-2.61,4.2s-.38,5.11,2.26,4.93c0,0,2.82-.3,2.79-5.37"/><path class="cls-3" d="M96.89,289.17H91.71v6.89h-1.9v-6.89H84.68v-1.8h5.13V282.3h1.9v5.07h5.18Zm-7.78.92L87.33,295c-.18.57-.47.85-.89.85H84.89V294h.53c.2,0,.34-.17.44-.51L87,290.09Zm-2-7.12.55,1.61c.06.22.17.32.32.32h1.11v1.8H87.18a1.16,1.16,0,0,1-1.21-.89L85.11,283Zm9.51,0-1.17,2.81a1.26,1.26,0,0,1-1.24.92h-1.7v-1.8h.9c.24,0,.42-.15.52-.45l.56-1.48Zm-1.82,7.12.85,3.38c.06.31.2.48.43.48h.59v1.87H95a1.18,1.18,0,0,1-1.22-1l-1.18-4.71Z"/><path class="cls-3" d="M114.54,293.82a2.61,2.61,0,0,1-.5,1.78,2,2,0,0,1-1.74.64v-1.75a.87.87,0,0,0,.43-.79V282.36h11.84V285q0,1.56-1.38,1.56h-8.65Zm0-9h7.84c.22,0,.33-.06.33-.16v-.63h-8.17Zm9.76,3.91H118l-.73,1.21h4.53c.15,0,.23,0,.23-.12l-.06-.73h1.87l.14.69v.9c0,.48-.33.71-1,.71h-2.35v.67H124v1.62h-3.41v.79h3.8v1.64h-9.5v-1.64h3.68v-.79h-3.36v-1.62h3.36v-.67h-3.36v-1.26l.77-1.4h-1v-1.62h9.33Z"/><path class="cls-3" d="M151,295.82a1.47,1.47,0,0,1-1.14.48h-4v-2h2.93c.44,0,.65-.25.65-.73v-7.93c0-.49-.21-.73-.65-.73h-1.92l-2.5,9.43a7,7,0,0,1-.42,1.2,1.4,1.4,0,0,1-1.25.77h-1.34a1.5,1.5,0,0,1-1.16-.48,1.91,1.91,0,0,1-.41-1.3v-9.86a1.89,1.89,0,0,1,.41-1.29,1.43,1.43,0,0,1,1.16-.48h8.46a1.41,1.41,0,0,1,1.14.48,1.89,1.89,0,0,1,.43,1.29v9.86a1.92,1.92,0,0,1-.43,1.3m-8.58-10.92c-.44,0-.66.24-.66.73v8c0,.38.13.56.38.56s.37-.21.5-.64L145,284.9Z"/><path class="cls-3" d="M167.66,296.11c-1,0-1.43-.48-1.43-1.47V282.36h2v11a.88.88,0,0,0,.14.58.68.68,0,0,0,.5.16h.31v2Zm4-.42a1.75,1.75,0,0,1-1.42-.62,2.46,2.46,0,0,1-.54-1.67v-3.59h2v3.12c0,.5.21.74.64.74h5.58v2Zm-1.92-12.41h7.84v2h-7.84Z"/><path class="cls-3" d="M202,289l.58,1.17v1.62H195.9c-.38,0-.56.19-.56.59v1.13c0,.4.18.6.56.6h7.81v2h-8.39a2.07,2.07,0,0,1-1.5-.44,2.19,2.19,0,0,1-.44-1.56v-2.17a2.3,2.3,0,0,1,.36-1.53,1.78,1.78,0,0,1,1.38-.41h5.26l-.53-1H192.4v-2h6.42l-.52-1h-5.49v-2h4.45l-.8-1.57h2.32l.76,1.57h2.81l-.59-1.38,1-.51.91,2-.49.25v1.6h-2.59l.49,1h3.49v2Zm2.17-4.84-.88-2.05.88-.43,1,2Z"/><path class="cls-3" d="M221.33,292.14a1.87,1.87,0,0,1-1.36-.39,2.26,2.26,0,0,1-.39-1.51v-7.85h1.95v6.89a.65.65,0,0,0,.78.84h1v2Zm7.87,3.26a2.22,2.22,0,0,1-1.75.73h-5.58v-2h5.27a.65.65,0,0,0,.51-.24.77.77,0,0,0,.22-.57V282.48h2v10.83a3.09,3.09,0,0,1-.63,2.09"/><path class="cls-3" d="M255.07,296.09h-3.69v-2h2.84c.24,0,.36-.14.36-.4v-6.42c0-.26-.12-.4-.36-.4H252.8a44.27,44.27,0,0,1-1.91,6.18c-.8,2-1.49,3-2.07,3h-2.73c-1,0-1.46-.56-1.46-1.65v-7.9c0-1.09.48-1.63,1.46-1.63h1c-.07-.66-.16-1.48-.24-2.49h2c0,.74,0,1.57.11,2.49h2.34a14,14,0,0,0,.31-2.46h2c-.09.69-.22,1.51-.42,2.46h1.81c1,0,1.45.54,1.45,1.63v7.94c0,1.11-.49,1.65-1.46,1.65m-7.71-9.22h-.43c-.24,0-.37.14-.37.42v6.35c0,.27.13.4.37.4h1.32c.09,0,.21-.12.35-.34a50.55,50.55,0,0,1-1.24-6.83m1.86,0c.14,1.32.31,2.67.53,4,.43-1.3.81-2.63,1.16-4Z"/><path class="cls-3" d="M280.93,295.68a3,3,0,0,1-1.69.45h-6.12a1.66,1.66,0,0,1-1.3-.57,2.18,2.18,0,0,1-.57-1.57V282.74h1.94v10.48a.92.92,0,0,0,.22.62.79.79,0,0,0,.58.25h5.14a.73.73,0,0,0,.57-.25.89.89,0,0,0,.24-.62v-2.93h1.92v3.35a2.27,2.27,0,0,1-.93,2"/></g></g></svg>