<svg xmlns="http://www.w3.org/2000/svg" width="260.39" height="260.65" viewBox="0 0 260.39 260.65"><defs><style>.cls-1{fill:#fff;}.cls-2{fill:#ccc;}</style></defs><title>logo_w</title><g id="レイヤー_2" data-name="レイヤー 2"><g id="レイヤー_1-2" data-name="レイヤー 1"><polygon class="cls-1" points="0 260.65 130.19 0 260.39 260.65 0 260.65"/><polygon class="cls-2" points="130 0 102.15 55.98 158.24 55.98 130 0"/><path d="M150.59,102.91a4.59,4.59,0,0,0-2.52.3,1.76,1.76,0,0,0-.87,1.29l-2,14.84a.24.24,0,0,1-.09.16.5.5,0,0,1,0-.21,1.59,1.59,0,0,1-.64.1L132,119.22l.24-28.58a2.41,2.41,0,0,0-1.18-2.24,5.05,5.05,0,0,0-2.79-.76,3.69,3.69,0,0,0-2.54.81,3,3,0,0,0-.89,2.19l.18,28.52q-7.51.06-12.49.23c-.45,0-.71-.15-.83-.43l-.34-14q-.24-3-3.45-3a4,4,0,0,0-2.5.77,3,3,0,0,0-.87,2.25,46.13,46.13,0,0,0,.34,5q.32,3.32.6,9.71a.12.12,0,0,0,0,0h0l0,0a.28.28,0,0,1,0,.09l-.06,0c.06,1.2.11,2.46.17,3.81,0,1,.64,1.58,1.9,1.58a21.9,21.9,0,0,0,2.9-.29q3.38-.65,18.58-.65,9,0,16,.48c2.49.14,4,.23,4.5.23a1.39,1.39,0,0,0,.5-.1l.2.1c.06-.09.12-.21.18-.32a1.62,1.62,0,0,0,.19-.18,1.5,1.5,0,0,1,0-.22c0-.08.06-.15.09-.24q1.83-12.56,2.91-18.24.19-2.53-3-2.82"/><path d="M107.2,161.63c-1.29-.17-1.93-.53-1.93-1.09q1.76-7,3.79-28c0-1.19.5-1.79,1.38-1.79.36,0,1.14.06,2.35.19,3.52.21,8.91.33,16.17.33s13.06-.2,17.07-.58a11.05,11.05,0,0,1,2-.38c.8,0,1.28.74,1.44,2.23l3.31,27.27c0,.89-.88,1.47-2.64,1.72q-10.59,1-21.41,1-15.32,0-21.51-1m25-11.84.06,7.74q6,0,11.3-.44c1.72-.14,2.59-.3,2.59-.52l-.91-7.86a79.76,79.76,0,0,1-13,1.08M132.08,136l.06,8.51a84.51,84.51,0,0,0,12.5-1l-.84-7.29c0-.31-.24-.45-.72-.45-3.69.12-7.35.19-11,.19m-5.65.06H115.61c-.4,0-.62.24-.66.71l-1,7q6.42.57,12.32.7Zm-.12,13.7q-6.5-.14-13-.77l-1,7.55c0,.26.49.45,1.44.58q3.92.38,12.39.38Z"/><path d="M127.36,190l-.15,0a21.57,21.57,0,0,0-5-1.62l.08-2.73c.78,0,1.58.07,2.41.14l2.71.21v-3.62c-1.58-.06-3.29-.11-5.12-.14v-.31h0l0-5.42a15.85,15.85,0,0,0-1.49-7.54,3.3,3.3,0,0,0-2.8-1.54c-1.13,0-2.06.76-2.79,2.31a18.4,18.4,0,0,0-1.08,6.77v5.73c-2.45,0-4.54.07-6.26.12v0a66.72,66.72,0,0,0-9.16.53c-1.26.39-1.89,1-1.89,1.93,0,1.07,1.47,1.62,4.4,1.62.58,0,1.75-.11,3.52-.32,1-.1,2.23-.19,3.59-.26v0c1.6-.12,3.52-.2,5.8-.24v3a35.21,35.21,0,0,1-6,3.54,14.33,14.33,0,0,1-5.28,1.34q-.93,0-.93-.18a3.44,3.44,0,0,0-2.09,3.14,1.46,1.46,0,0,0,.54,1.26,4.1,4.1,0,0,0,1.86.31,17.09,17.09,0,0,0,6.29-1.31,20.67,20.67,0,0,0,5.6-3.45v8.61q0,2.42,1.08,2.91a6.18,6.18,0,0,0,2.79.58,3.79,3.79,0,0,0,2.88-1A3.7,3.7,0,0,0,122,201.4l.15-8.91c2.28.62,4,1,5.2,1.29Z"/><path d="M155.17,178.6c-2-.2-4.38-.33-7-.43v-2.26c0-1.26.1-3.09.28-5.51a7,7,0,0,0-1.15-4.25A3.44,3.44,0,0,0,145,164.9a3.14,3.14,0,0,0-2.51,1.73,14.59,14.59,0,0,0-.89,5.66v5.8c-5.11,0-9,.19-11.58.46v6.2a53,53,0,0,1,11.58-.9v18.08a3.54,3.54,0,0,1-1.9,3.09,5.68,5.68,0,0,1-1.33.65v.07a141.05,141.05,0,0,1-15.19.82,6.55,6.55,0,0,0,3.39,5.69,14.9,14.9,0,0,0,6.77,1.46c1.92,0,3.77-.06,5.58-.18v-.09a13.46,13.46,0,0,0,5.89-2.68c2.26-1.81,3.39-4.57,3.39-8.26V183.92h.69c2.32.14,3.95.2,4.9.2a2.14,2.14,0,0,0,2.11-1.26,8,8,0,0,0,.82-3.42q0-.7-1.5-.84"/><path d="M136,193.62s-1.73-.09-2.28-3.52a5.6,5.6,0,0,0-2.45,3.93s-.36,4.78,2.11,4.61c0,0,2.65-.28,2.62-5"/><path d="M51.66,234H46.81v6.45H45V234h-4.8v-1.69H45V227.6h1.78v4.74h4.85Zm-7.29.86-1.67,4.57c-.16.53-.44.8-.83.8H40.42v-1.75h.5c.18,0,.31-.17.41-.48l1.05-3.14Zm-1.91-6.67.52,1.51c.05.2.15.3.29.3h1v1.69H42.57a1.1,1.1,0,0,1-1.14-.84l-.8-2.66Zm8.91,0-1.09,2.63a1.2,1.2,0,0,1-1.17.87H47.52V230h.84c.23,0,.39-.14.49-.42l.52-1.39Zm-1.7,6.67.79,3.16c.06.3.19.46.4.46h.56v1.75h-1.5a1.12,1.12,0,0,1-1.15-1l-1.1-4.41Z"/><path d="M68.19,238.38a2.45,2.45,0,0,1-.47,1.67,1.92,1.92,0,0,1-1.63.6V239a.81.81,0,0,0,.4-.74V227.65H77.58v2.44c0,1-.43,1.46-1.29,1.46h-8.1Zm0-8.41h7.35q.3,0,.3-.15v-.59H68.19Zm9.14,3.67H71.42l-.68,1.13H75c.14,0,.21,0,.21-.11l0-.68h1.75l.13.64v.84c0,.45-.31.67-.94.67h-2.2v.63h3.2v1.51h-3.2V239h3.56v1.53h-8.9V239H72v-.74H68.85v-1.51H72v-.63H68.85v-1.19l.71-1.3h-1v-1.52h8.74Z"/><path d="M102.35,240.26a1.39,1.39,0,0,1-1.07.44H97.57v-1.88h2.74c.42,0,.62-.23.62-.68v-7.43c0-.45-.2-.68-.62-.68H98.52l-2.35,8.83a5.87,5.87,0,0,1-.39,1.12,1.31,1.31,0,0,1-1.17.72H93.35a1.39,1.39,0,0,1-1.08-.44,1.82,1.82,0,0,1-.39-1.22v-9.23a1.78,1.78,0,0,1,.39-1.21,1.34,1.34,0,0,1,1.08-.46h7.93a1.34,1.34,0,0,1,1.07.46,1.78,1.78,0,0,1,.4,1.21V239a1.83,1.83,0,0,1-.4,1.22m-8-10.23c-.41,0-.61.23-.61.68v7.52c0,.35.11.52.35.52s.35-.2.46-.6L96.72,230Z"/><path d="M117.94,240.53c-.9,0-1.34-.45-1.34-1.38v-11.5h1.82v10.29a.87.87,0,0,0,.13.55.7.7,0,0,0,.48.15h.28v1.87Zm3.75-.39a1.68,1.68,0,0,1-1.33-.58,2.31,2.31,0,0,1-.51-1.57v-3.36h1.84v2.92c0,.46.2.7.6.7h5.22v1.89Zm-1.81-11.63h7.35v1.89h-7.35Z"/><path d="M150.13,233.83l.55,1.1v1.51h-6.3c-.35,0-.52.18-.52.55v1.06c0,.38.17.57.52.57h7.32v1.89h-7.86a1.89,1.89,0,0,1-1.4-.42,2,2,0,0,1-.41-1.45v-2a2.19,2.19,0,0,1,.33-1.44,1.7,1.7,0,0,1,1.3-.38h4.93l-.5-1h-7v-1.89h6l-.48-.94h-5.15v-1.88h4.17l-.75-1.47h2.17l.72,1.47h2.63l-.55-1.29.88-.47.86,1.9-.46.23V231h-2.43l.47.94h3.26v1.89Zm2-4.53-.82-1.92.82-.41.89,1.84Z"/><path d="M168.21,236.81a1.73,1.73,0,0,1-1.28-.37,2.13,2.13,0,0,1-.36-1.41v-7.35h1.83v6.45c0,.34.06.57.19.67a.87.87,0,0,0,.54.12h.93v1.89Zm7.36,3.05a2,2,0,0,1-1.63.68h-5.23v-1.88h4.93a.61.61,0,0,0,.49-.22.76.76,0,0,0,.2-.53V227.76h1.83v10.15a2.89,2.89,0,0,1-.59,2"/><path d="M199.8,240.51h-3.45v-1.87H199c.22,0,.34-.13.34-.38v-6c0-.25-.12-.37-.34-.37h-1.33a44.51,44.51,0,0,1-1.79,5.79c-.75,1.86-1.39,2.8-1.94,2.8h-2.56c-.91,0-1.37-.52-1.37-1.55v-7.39c0-1,.46-1.53,1.37-1.53h1c-.07-.62-.15-1.39-.22-2.33H194c0,.69,0,1.47.1,2.33h2.19a13.82,13.82,0,0,0,.29-2.31h1.9c-.08.65-.21,1.42-.4,2.31h1.71q1.35,0,1.35,1.53V239c0,1-.45,1.54-1.37,1.54m-7.22-8.63h-.4c-.22,0-.34.13-.34.39v5.94c0,.26.12.38.34.38h1.24c.08,0,.19-.11.32-.32a48.93,48.93,0,0,1-1.16-6.39m1.74,0c.14,1.23.3,2.49.5,3.77.4-1.22.76-2.47,1.09-3.77Z"/><path d="M224,240.13a2.81,2.81,0,0,1-1.58.41h-5.73a1.59,1.59,0,0,1-1.22-.53,2.05,2.05,0,0,1-.53-1.47V228h1.82v9.81a.85.85,0,0,0,.2.58.76.76,0,0,0,.55.24h4.8a.69.69,0,0,0,.54-.24.82.82,0,0,0,.22-.58v-2.75h1.81v3.14a2.13,2.13,0,0,1-.88,1.92"/></g></g></svg>